<mxfile host="app.diagrams.net" agent="Mozilla/5.0 (Macintosh; Intel Mac OS X 10_15_7) AppleWebKit/537.36 (KHTML, like Gecko) Chrome/127.0.0.0 Safari/537.36" version="24.7.7" pages="2">
  <diagram name="Admin Card" id="fyqmloaNYQx6eK5vVG5Y">
    <mxGraphModel dx="2936" dy="647" grid="1" gridSize="10" guides="1" tooltips="1" connect="1" arrows="1" fold="1" page="1" pageScale="1" pageWidth="1920" pageHeight="1200" math="0" shadow="0">
      <root>
        <mxCell id="0" />
        <mxCell id="1" parent="0" />
        <mxCell id="Sgj4fwg7qZ8oZ1OQpUtn-53" value="" style="rounded=0;whiteSpace=wrap;html=1;" parent="1" vertex="1">
          <mxGeometry x="-20" y="240" width="950" height="380" as="geometry" />
        </mxCell>
        <mxCell id="Sgj4fwg7qZ8oZ1OQpUtn-38" value="" style="rounded=1;whiteSpace=wrap;html=1;" parent="1" vertex="1">
          <mxGeometry x="110" y="310" width="770" height="220" as="geometry" />
        </mxCell>
        <mxCell id="Sgj4fwg7qZ8oZ1OQpUtn-4" value="" style="edgeStyle=orthogonalEdgeStyle;rounded=0;orthogonalLoop=1;jettySize=auto;html=1;" parent="1" source="Sgj4fwg7qZ8oZ1OQpUtn-1" target="Sgj4fwg7qZ8oZ1OQpUtn-3" edge="1">
          <mxGeometry relative="1" as="geometry" />
        </mxCell>
        <mxCell id="Sgj4fwg7qZ8oZ1OQpUtn-1" value="CCMS-BATCH-PHYSICAL" style="rounded=0;whiteSpace=wrap;html=1;" parent="1" vertex="1">
          <mxGeometry y="100" width="120" height="60" as="geometry" />
        </mxCell>
        <mxCell id="Sgj4fwg7qZ8oZ1OQpUtn-2" value="Card Embossing Flow" style="text;html=1;align=center;verticalAlign=middle;whiteSpace=wrap;rounded=0;" parent="1" vertex="1">
          <mxGeometry x="-20" y="10" width="250" height="30" as="geometry" />
        </mxCell>
        <mxCell id="Sgj4fwg7qZ8oZ1OQpUtn-6" value="" style="edgeStyle=orthogonalEdgeStyle;rounded=0;orthogonalLoop=1;jettySize=auto;html=1;" parent="1" source="Sgj4fwg7qZ8oZ1OQpUtn-3" target="Sgj4fwg7qZ8oZ1OQpUtn-5" edge="1">
          <mxGeometry relative="1" as="geometry" />
        </mxCell>
        <mxCell id="Sgj4fwg7qZ8oZ1OQpUtn-3" value="Validate Order" style="rounded=0;whiteSpace=wrap;html=1;" parent="1" vertex="1">
          <mxGeometry x="200" y="100" width="120" height="60" as="geometry" />
        </mxCell>
        <mxCell id="Sgj4fwg7qZ8oZ1OQpUtn-9" value="" style="edgeStyle=orthogonalEdgeStyle;rounded=0;orthogonalLoop=1;jettySize=auto;html=1;" parent="1" source="Sgj4fwg7qZ8oZ1OQpUtn-5" target="Sgj4fwg7qZ8oZ1OQpUtn-7" edge="1">
          <mxGeometry relative="1" as="geometry" />
        </mxCell>
        <mxCell id="Sgj4fwg7qZ8oZ1OQpUtn-5" value="Generate Card No" style="rounded=0;whiteSpace=wrap;html=1;" parent="1" vertex="1">
          <mxGeometry x="400" y="100" width="120" height="60" as="geometry" />
        </mxCell>
        <mxCell id="Sgj4fwg7qZ8oZ1OQpUtn-10" value="" style="edgeStyle=orthogonalEdgeStyle;rounded=0;orthogonalLoop=1;jettySize=auto;html=1;" parent="1" source="Sgj4fwg7qZ8oZ1OQpUtn-7" target="Sgj4fwg7qZ8oZ1OQpUtn-8" edge="1">
          <mxGeometry relative="1" as="geometry" />
        </mxCell>
        <mxCell id="Sgj4fwg7qZ8oZ1OQpUtn-7" value="Generate Emboss File" style="rounded=0;whiteSpace=wrap;html=1;" parent="1" vertex="1">
          <mxGeometry x="600" y="100" width="120" height="60" as="geometry" />
        </mxCell>
        <mxCell id="Sgj4fwg7qZ8oZ1OQpUtn-12" value="" style="edgeStyle=orthogonalEdgeStyle;rounded=0;orthogonalLoop=1;jettySize=auto;html=1;" parent="1" source="Sgj4fwg7qZ8oZ1OQpUtn-8" target="Sgj4fwg7qZ8oZ1OQpUtn-11" edge="1">
          <mxGeometry relative="1" as="geometry" />
        </mxCell>
        <mxCell id="Sgj4fwg7qZ8oZ1OQpUtn-8" value="Mapping Random No&lt;br&gt;&amp;amp;&lt;br&gt;Add to card holder" style="rounded=0;whiteSpace=wrap;html=1;" parent="1" vertex="1">
          <mxGeometry x="800" y="100" width="120" height="60" as="geometry" />
        </mxCell>
        <mxCell id="Sgj4fwg7qZ8oZ1OQpUtn-14" value="" style="edgeStyle=orthogonalEdgeStyle;rounded=0;orthogonalLoop=1;jettySize=auto;html=1;" parent="1" source="Sgj4fwg7qZ8oZ1OQpUtn-11" target="Sgj4fwg7qZ8oZ1OQpUtn-13" edge="1">
          <mxGeometry relative="1" as="geometry" />
        </mxCell>
        <mxCell id="Sgj4fwg7qZ8oZ1OQpUtn-11" value="Generate Report" style="rounded=0;whiteSpace=wrap;html=1;" parent="1" vertex="1">
          <mxGeometry x="1000" y="100" width="120" height="60" as="geometry" />
        </mxCell>
        <mxCell id="Sgj4fwg7qZ8oZ1OQpUtn-13" value="Generate Partial Refresh" style="rounded=0;whiteSpace=wrap;html=1;" parent="1" vertex="1">
          <mxGeometry x="1200" y="100" width="120" height="60" as="geometry" />
        </mxCell>
        <mxCell id="Sgj4fwg7qZ8oZ1OQpUtn-18" value="" style="edgeStyle=orthogonalEdgeStyle;rounded=0;orthogonalLoop=1;jettySize=auto;html=1;" parent="1" source="Sgj4fwg7qZ8oZ1OQpUtn-15" target="Sgj4fwg7qZ8oZ1OQpUtn-16" edge="1">
          <mxGeometry relative="1" as="geometry">
            <Array as="points">
              <mxPoint x="300" y="390" />
              <mxPoint x="300" y="390" />
            </Array>
          </mxGeometry>
        </mxCell>
        <mxCell id="Sgj4fwg7qZ8oZ1OQpUtn-15" value="" style="rounded=0;whiteSpace=wrap;html=1;" parent="1" vertex="1">
          <mxGeometry x="160" y="360" width="120" height="140" as="geometry" />
        </mxCell>
        <mxCell id="Sgj4fwg7qZ8oZ1OQpUtn-19" value="" style="edgeStyle=orthogonalEdgeStyle;rounded=0;orthogonalLoop=1;jettySize=auto;html=1;" parent="1" source="Sgj4fwg7qZ8oZ1OQpUtn-16" target="Sgj4fwg7qZ8oZ1OQpUtn-17" edge="1">
          <mxGeometry relative="1" as="geometry" />
        </mxCell>
        <mxCell id="Sgj4fwg7qZ8oZ1OQpUtn-16" value="CorpGW" style="rounded=0;whiteSpace=wrap;html=1;" parent="1" vertex="1">
          <mxGeometry x="360" y="360" width="120" height="60" as="geometry" />
        </mxCell>
        <mxCell id="Sgj4fwg7qZ8oZ1OQpUtn-23" style="edgeStyle=orthogonalEdgeStyle;rounded=0;orthogonalLoop=1;jettySize=auto;html=1;" parent="1" source="Sgj4fwg7qZ8oZ1OQpUtn-17" target="Sgj4fwg7qZ8oZ1OQpUtn-22" edge="1">
          <mxGeometry relative="1" as="geometry" />
        </mxCell>
        <mxCell id="Sgj4fwg7qZ8oZ1OQpUtn-17" value="PlusTech" style="rounded=0;whiteSpace=wrap;html=1;" parent="1" vertex="1">
          <mxGeometry x="560" y="360" width="120" height="60" as="geometry" />
        </mxCell>
        <mxCell id="Sgj4fwg7qZ8oZ1OQpUtn-20" value="Tandem" style="rounded=0;whiteSpace=wrap;html=1;" parent="1" vertex="1">
          <mxGeometry x="360" y="440" width="120" height="60" as="geometry" />
        </mxCell>
        <mxCell id="Sgj4fwg7qZ8oZ1OQpUtn-22" value="BU" style="shape=umlActor;verticalLabelPosition=bottom;verticalAlign=top;html=1;outlineConnect=0;" parent="1" vertex="1">
          <mxGeometry x="800" y="360" width="30" height="60" as="geometry" />
        </mxCell>
        <mxCell id="Sgj4fwg7qZ8oZ1OQpUtn-30" value="" style="edgeStyle=orthogonalEdgeStyle;rounded=0;orthogonalLoop=1;jettySize=auto;html=1;strokeColor=#FFB570;" parent="1" edge="1">
          <mxGeometry relative="1" as="geometry">
            <mxPoint x="480" y="400" as="sourcePoint" />
            <mxPoint x="560" y="400" as="targetPoint" />
          </mxGeometry>
        </mxCell>
        <mxCell id="Sgj4fwg7qZ8oZ1OQpUtn-32" value="" style="edgeStyle=orthogonalEdgeStyle;rounded=0;orthogonalLoop=1;jettySize=auto;html=1;" parent="1" edge="1">
          <mxGeometry relative="1" as="geometry">
            <mxPoint x="280" y="460" as="sourcePoint" />
            <mxPoint x="360" y="460" as="targetPoint" />
            <Array as="points">
              <mxPoint x="300" y="460" />
              <mxPoint x="300" y="460" />
            </Array>
          </mxGeometry>
        </mxCell>
        <mxCell id="Sgj4fwg7qZ8oZ1OQpUtn-33" value="CCMS&lt;div&gt;Admin Card&lt;/div&gt;" style="rounded=1;whiteSpace=wrap;html=1;fillColor=#FFB570;" parent="1" vertex="1">
          <mxGeometry x="185" y="450" width="70" height="30" as="geometry" />
        </mxCell>
        <mxCell id="Sgj4fwg7qZ8oZ1OQpUtn-34" value="" style="edgeStyle=orthogonalEdgeStyle;rounded=0;orthogonalLoop=1;jettySize=auto;html=1;strokeColor=#FFB570;fontStyle=1" parent="1" edge="1">
          <mxGeometry relative="1" as="geometry">
            <mxPoint x="281" y="400" as="sourcePoint" />
            <mxPoint x="361" y="400" as="targetPoint" />
            <Array as="points">
              <mxPoint x="301" y="400" />
              <mxPoint x="301" y="400" />
            </Array>
          </mxGeometry>
        </mxCell>
        <mxCell id="Sgj4fwg7qZ8oZ1OQpUtn-35" value="" style="edgeStyle=orthogonalEdgeStyle;rounded=0;orthogonalLoop=1;jettySize=auto;html=1;strokeColor=#FFB570;" parent="1" edge="1">
          <mxGeometry relative="1" as="geometry">
            <mxPoint x="280" y="470" as="sourcePoint" />
            <mxPoint x="360" y="470" as="targetPoint" />
            <Array as="points">
              <mxPoint x="300" y="470" />
              <mxPoint x="300" y="470" />
            </Array>
          </mxGeometry>
        </mxCell>
        <mxCell id="Sgj4fwg7qZ8oZ1OQpUtn-36" style="edgeStyle=orthogonalEdgeStyle;rounded=0;orthogonalLoop=1;jettySize=auto;html=1;strokeColor=#FFB570;" parent="1" edge="1">
          <mxGeometry relative="1" as="geometry">
            <mxPoint x="681" y="400" as="sourcePoint" />
            <mxPoint x="801" y="400" as="targetPoint" />
          </mxGeometry>
        </mxCell>
        <mxCell id="Sgj4fwg7qZ8oZ1OQpUtn-37" value="CCMS&lt;div&gt;Debit Card&lt;/div&gt;" style="rounded=1;whiteSpace=wrap;html=1;fillColor=none;" parent="1" vertex="1">
          <mxGeometry x="185" y="380" width="70" height="30" as="geometry" />
        </mxCell>
        <mxCell id="Sgj4fwg7qZ8oZ1OQpUtn-39" value="Card Embossing Diagram" style="text;html=1;align=center;verticalAlign=middle;whiteSpace=wrap;rounded=0;fontStyle=1" parent="1" vertex="1">
          <mxGeometry x="110" y="320" width="189" height="30" as="geometry" />
        </mxCell>
        <mxCell id="Sgj4fwg7qZ8oZ1OQpUtn-40" value="" style="rounded=0;whiteSpace=wrap;html=1;" parent="1" vertex="1">
          <mxGeometry x="670" y="490" width="10" height="10" as="geometry" />
        </mxCell>
        <mxCell id="Sgj4fwg7qZ8oZ1OQpUtn-41" value="" style="rounded=0;whiteSpace=wrap;html=1;fillColor=#FFB570;" parent="1" vertex="1">
          <mxGeometry x="670" y="506" width="10" height="10" as="geometry" />
        </mxCell>
        <mxCell id="Sgj4fwg7qZ8oZ1OQpUtn-42" value="Existing Interface" style="text;html=1;align=center;verticalAlign=middle;whiteSpace=wrap;rounded=0;" parent="1" vertex="1">
          <mxGeometry x="670" y="485" width="120" height="20" as="geometry" />
        </mxCell>
        <mxCell id="Sgj4fwg7qZ8oZ1OQpUtn-43" value="New Interface" style="text;html=1;align=center;verticalAlign=middle;whiteSpace=wrap;rounded=0;" parent="1" vertex="1">
          <mxGeometry x="680" y="504" width="80" height="14" as="geometry" />
        </mxCell>
        <mxCell id="Sgj4fwg7qZ8oZ1OQpUtn-44" value="SDI" style="rounded=0;whiteSpace=wrap;html=1;" parent="1" vertex="1">
          <mxGeometry x="20" y="370" width="60" height="20" as="geometry" />
        </mxCell>
        <mxCell id="Sgj4fwg7qZ8oZ1OQpUtn-45" value="BMGR" style="rounded=0;whiteSpace=wrap;html=1;" parent="1" vertex="1">
          <mxGeometry x="20" y="390" width="60" height="20" as="geometry" />
        </mxCell>
        <mxCell id="Sgj4fwg7qZ8oZ1OQpUtn-46" value="KPlus" style="rounded=0;whiteSpace=wrap;html=1;" parent="1" vertex="1">
          <mxGeometry x="20" y="410" width="60" height="20" as="geometry" />
        </mxCell>
        <mxCell id="Sgj4fwg7qZ8oZ1OQpUtn-47" value="KLine" style="rounded=0;whiteSpace=wrap;html=1;" parent="1" vertex="1">
          <mxGeometry x="20" y="430" width="60" height="20" as="geometry" />
        </mxCell>
        <mxCell id="Sgj4fwg7qZ8oZ1OQpUtn-48" value="" style="endArrow=classic;html=1;rounded=0;entryX=-0.001;entryY=0.318;entryDx=0;entryDy=0;entryPerimeter=0;" parent="1" target="Sgj4fwg7qZ8oZ1OQpUtn-38" edge="1">
          <mxGeometry width="50" height="50" relative="1" as="geometry">
            <mxPoint x="80" y="380" as="sourcePoint" />
            <mxPoint x="130" y="330" as="targetPoint" />
          </mxGeometry>
        </mxCell>
        <mxCell id="Sgj4fwg7qZ8oZ1OQpUtn-49" value="" style="endArrow=classic;html=1;rounded=0;entryX=-0.001;entryY=0.318;entryDx=0;entryDy=0;entryPerimeter=0;" parent="1" edge="1">
          <mxGeometry width="50" height="50" relative="1" as="geometry">
            <mxPoint x="81" y="399" as="sourcePoint" />
            <mxPoint x="110" y="399" as="targetPoint" />
          </mxGeometry>
        </mxCell>
        <mxCell id="Sgj4fwg7qZ8oZ1OQpUtn-50" value="" style="endArrow=classic;html=1;rounded=0;entryX=-0.001;entryY=0.318;entryDx=0;entryDy=0;entryPerimeter=0;" parent="1" edge="1">
          <mxGeometry width="50" height="50" relative="1" as="geometry">
            <mxPoint x="81" y="419" as="sourcePoint" />
            <mxPoint x="110" y="419" as="targetPoint" />
          </mxGeometry>
        </mxCell>
        <mxCell id="Sgj4fwg7qZ8oZ1OQpUtn-51" value="" style="endArrow=classic;html=1;rounded=0;entryX=-0.001;entryY=0.318;entryDx=0;entryDy=0;entryPerimeter=0;" parent="1" edge="1">
          <mxGeometry width="50" height="50" relative="1" as="geometry">
            <mxPoint x="81" y="440" as="sourcePoint" />
            <mxPoint x="110" y="440" as="targetPoint" />
          </mxGeometry>
        </mxCell>
        <mxCell id="Sgj4fwg7qZ8oZ1OQpUtn-52" value="Card ordering" style="text;html=1;align=center;verticalAlign=middle;whiteSpace=wrap;rounded=0;fontStyle=1" parent="1" vertex="1">
          <mxGeometry x="20" y="330" width="60" height="30" as="geometry" />
        </mxCell>
      </root>
    </mxGraphModel>
  </diagram>
  <diagram id="Y4GZ2v-JGW4uYdWoJa4T" name="KPlus_ChangePin">
    <mxGraphModel dx="1308" dy="657" grid="1" gridSize="10" guides="1" tooltips="1" connect="1" arrows="1" fold="1" page="1" pageScale="1" pageWidth="1920" pageHeight="1200" math="0" shadow="0">
      <root>
        <mxCell id="0" />
        <mxCell id="1" parent="0" />
        <mxCell id="s4sVvPbw_b3RqCzsC3ED-46" value="CCMS" style="rounded=0;whiteSpace=wrap;html=1;" vertex="1" parent="1">
          <mxGeometry x="950" y="1140" width="120" height="520" as="geometry" />
        </mxCell>
        <mxCell id="s4sVvPbw_b3RqCzsC3ED-52" value="EAI" style="rounded=0;whiteSpace=wrap;html=1;" vertex="1" parent="1">
          <mxGeometry x="690" y="1130" width="120" height="190" as="geometry" />
        </mxCell>
        <mxCell id="s4sVvPbw_b3RqCzsC3ED-102" value="" style="rounded=0;whiteSpace=wrap;html=1;fillColor=#e6ffcc;strokeColor=#6c8ebf;opacity=30;" vertex="1" parent="1">
          <mxGeometry x="550" y="1254" width="650" height="70" as="geometry" />
        </mxCell>
        <mxCell id="s4sVvPbw_b3RqCzsC3ED-1" value="" style="edgeStyle=orthogonalEdgeStyle;rounded=0;orthogonalLoop=1;jettySize=auto;html=1;" edge="1" parent="1" source="s4sVvPbw_b3RqCzsC3ED-3" target="s4sVvPbw_b3RqCzsC3ED-7">
          <mxGeometry relative="1" as="geometry" />
        </mxCell>
        <mxCell id="s4sVvPbw_b3RqCzsC3ED-2" style="edgeStyle=orthogonalEdgeStyle;rounded=0;orthogonalLoop=1;jettySize=auto;html=1;" edge="1" parent="1">
          <mxGeometry relative="1" as="geometry">
            <mxPoint x="710" y="239.5" as="targetPoint" />
            <mxPoint x="980" y="239.5" as="sourcePoint" />
            <Array as="points">
              <mxPoint x="846" y="239.5" />
              <mxPoint x="846" y="240.5" />
            </Array>
          </mxGeometry>
        </mxCell>
        <mxCell id="s4sVvPbw_b3RqCzsC3ED-3" value="CCMS" style="whiteSpace=wrap;html=1;aspect=fixed;" vertex="1" parent="1">
          <mxGeometry x="980" y="200" width="80" height="80" as="geometry" />
        </mxCell>
        <mxCell id="s4sVvPbw_b3RqCzsC3ED-4" style="edgeStyle=orthogonalEdgeStyle;rounded=0;orthogonalLoop=1;jettySize=auto;html=1;entryX=1;entryY=0.5;entryDx=0;entryDy=0;" edge="1" parent="1" source="s4sVvPbw_b3RqCzsC3ED-5" target="s4sVvPbw_b3RqCzsC3ED-6">
          <mxGeometry relative="1" as="geometry" />
        </mxCell>
        <mxCell id="s4sVvPbw_b3RqCzsC3ED-5" value="K+" style="whiteSpace=wrap;html=1;aspect=fixed;" vertex="1" parent="1">
          <mxGeometry x="620" y="200" width="80" height="80" as="geometry" />
        </mxCell>
        <mxCell id="s4sVvPbw_b3RqCzsC3ED-6" value="mobile" style="whiteSpace=wrap;html=1;aspect=fixed;" vertex="1" parent="1">
          <mxGeometry x="260" y="200" width="80" height="80" as="geometry" />
        </mxCell>
        <mxCell id="s4sVvPbw_b3RqCzsC3ED-7" value="HSM" style="rounded=0;whiteSpace=wrap;html=1;" vertex="1" parent="1">
          <mxGeometry x="960" y="370" width="120" height="60" as="geometry" />
        </mxCell>
        <mxCell id="s4sVvPbw_b3RqCzsC3ED-8" value="PublicKey" style="rounded=0;whiteSpace=wrap;html=1;" vertex="1" parent="1">
          <mxGeometry x="750" y="260" width="90" height="40" as="geometry" />
        </mxCell>
        <mxCell id="s4sVvPbw_b3RqCzsC3ED-9" style="edgeStyle=orthogonalEdgeStyle;rounded=0;orthogonalLoop=1;jettySize=auto;html=1;" edge="1" parent="1" source="s4sVvPbw_b3RqCzsC3ED-10" target="s4sVvPbw_b3RqCzsC3ED-3">
          <mxGeometry relative="1" as="geometry" />
        </mxCell>
        <mxCell id="s4sVvPbw_b3RqCzsC3ED-10" value="PublicKey(pinblock)" style="rounded=0;whiteSpace=wrap;html=1;" vertex="1" parent="1">
          <mxGeometry x="600" y="130" width="120" height="60" as="geometry" />
        </mxCell>
        <mxCell id="s4sVvPbw_b3RqCzsC3ED-11" value="" style="curved=1;endArrow=classic;html=1;rounded=0;entryX=0;entryY=0.5;entryDx=0;entryDy=0;" edge="1" parent="1" target="s4sVvPbw_b3RqCzsC3ED-10">
          <mxGeometry width="50" height="50" relative="1" as="geometry">
            <mxPoint x="290" y="200" as="sourcePoint" />
            <mxPoint x="340" y="150" as="targetPoint" />
            <Array as="points">
              <mxPoint x="340" y="200" />
              <mxPoint x="290" y="150" />
            </Array>
          </mxGeometry>
        </mxCell>
        <mxCell id="s4sVvPbw_b3RqCzsC3ED-12" value="" style="shape=cylinder3;whiteSpace=wrap;html=1;boundedLbl=1;backgroundOutline=1;size=15;" vertex="1" parent="1">
          <mxGeometry x="1090" y="210" width="60" height="80" as="geometry" />
        </mxCell>
        <mxCell id="s4sVvPbw_b3RqCzsC3ED-13" value="Private Key" style="text;html=1;strokeColor=none;fillColor=none;align=center;verticalAlign=middle;whiteSpace=wrap;rounded=0;" vertex="1" parent="1">
          <mxGeometry x="1110" y="225" width="190" height="30" as="geometry" />
        </mxCell>
        <mxCell id="s4sVvPbw_b3RqCzsC3ED-14" value="PublicKey" style="rounded=0;whiteSpace=wrap;html=1;" vertex="1" parent="1">
          <mxGeometry x="460" y="255" width="90" height="40" as="geometry" />
        </mxCell>
        <mxCell id="s4sVvPbw_b3RqCzsC3ED-15" value="" style="endArrow=classic;html=1;rounded=0;exitX=1.025;exitY=0.345;exitDx=0;exitDy=0;exitPerimeter=0;entryX=-0.025;entryY=0.357;entryDx=0;entryDy=0;entryPerimeter=0;" edge="1" parent="1" source="s4sVvPbw_b3RqCzsC3ED-6" target="s4sVvPbw_b3RqCzsC3ED-5">
          <mxGeometry width="50" height="50" relative="1" as="geometry">
            <mxPoint x="380" y="240" as="sourcePoint" />
            <mxPoint x="430" y="190" as="targetPoint" />
          </mxGeometry>
        </mxCell>
        <mxCell id="s4sVvPbw_b3RqCzsC3ED-16" value="" style="endArrow=classic;html=1;rounded=0;entryX=-0.037;entryY=0.357;entryDx=0;entryDy=0;entryPerimeter=0;" edge="1" parent="1" target="s4sVvPbw_b3RqCzsC3ED-3">
          <mxGeometry width="50" height="50" relative="1" as="geometry">
            <mxPoint x="710" y="230" as="sourcePoint" />
            <mxPoint x="820" y="180" as="targetPoint" />
          </mxGeometry>
        </mxCell>
        <mxCell id="s4sVvPbw_b3RqCzsC3ED-17" value="request public key" style="text;html=1;align=center;verticalAlign=middle;resizable=0;points=[];autosize=1;strokeColor=none;fillColor=none;" vertex="1" parent="1">
          <mxGeometry x="750" y="198" width="120" height="30" as="geometry" />
        </mxCell>
        <mxCell id="s4sVvPbw_b3RqCzsC3ED-18" value="" style="rounded=0;whiteSpace=wrap;html=1;" vertex="1" parent="1">
          <mxGeometry x="130" y="640" width="160" height="350" as="geometry" />
        </mxCell>
        <mxCell id="s4sVvPbw_b3RqCzsC3ED-19" value="K+" style="rounded=0;whiteSpace=wrap;html=1;" vertex="1" parent="1">
          <mxGeometry x="430" y="640" width="120" height="350" as="geometry" />
        </mxCell>
        <mxCell id="s4sVvPbw_b3RqCzsC3ED-20" value="CCMS" style="rounded=0;whiteSpace=wrap;html=1;" vertex="1" parent="1">
          <mxGeometry x="710" y="640" width="120" height="350" as="geometry" />
        </mxCell>
        <mxCell id="s4sVvPbw_b3RqCzsC3ED-21" value="" style="endArrow=classic;html=1;rounded=0;" edge="1" parent="1">
          <mxGeometry width="50" height="50" relative="1" as="geometry">
            <mxPoint x="290" y="660" as="sourcePoint" />
            <mxPoint x="420" y="660" as="targetPoint" />
          </mxGeometry>
        </mxCell>
        <mxCell id="s4sVvPbw_b3RqCzsC3ED-22" value="1 request set pin" style="text;html=1;align=center;verticalAlign=middle;resizable=0;points=[];autosize=1;strokeColor=none;fillColor=none;" vertex="1" parent="1">
          <mxGeometry x="295" y="638" width="110" height="30" as="geometry" />
        </mxCell>
        <mxCell id="s4sVvPbw_b3RqCzsC3ED-23" value="" style="endArrow=classic;html=1;rounded=0;entryX=-0.017;entryY=0.057;entryDx=0;entryDy=0;entryPerimeter=0;" edge="1" parent="1" target="s4sVvPbw_b3RqCzsC3ED-20">
          <mxGeometry width="50" height="50" relative="1" as="geometry">
            <mxPoint x="550" y="660" as="sourcePoint" />
            <mxPoint x="600" y="610" as="targetPoint" />
          </mxGeometry>
        </mxCell>
        <mxCell id="s4sVvPbw_b3RqCzsC3ED-24" value="2 request RSA publick key" style="text;html=1;align=center;verticalAlign=middle;resizable=0;points=[];autosize=1;strokeColor=none;fillColor=none;" vertex="1" parent="1">
          <mxGeometry x="550" y="638" width="160" height="30" as="geometry" />
        </mxCell>
        <mxCell id="s4sVvPbw_b3RqCzsC3ED-25" value="" style="endArrow=classic;html=1;rounded=0;exitX=-0.05;exitY=0.231;exitDx=0;exitDy=0;exitPerimeter=0;" edge="1" parent="1" source="s4sVvPbw_b3RqCzsC3ED-20">
          <mxGeometry width="50" height="50" relative="1" as="geometry">
            <mxPoint x="600" y="760" as="sourcePoint" />
            <mxPoint x="550" y="720" as="targetPoint" />
          </mxGeometry>
        </mxCell>
        <mxCell id="s4sVvPbw_b3RqCzsC3ED-26" value="3 ccms return RSA public key" style="text;html=1;align=center;verticalAlign=middle;resizable=0;points=[];autosize=1;strokeColor=none;fillColor=none;" vertex="1" parent="1">
          <mxGeometry x="540" y="698" width="180" height="30" as="geometry" />
        </mxCell>
        <mxCell id="s4sVvPbw_b3RqCzsC3ED-27" value="" style="endArrow=classic;html=1;rounded=0;exitX=-0.025;exitY=0.231;exitDx=0;exitDy=0;exitPerimeter=0;entryX=1.017;entryY=0.231;entryDx=0;entryDy=0;entryPerimeter=0;" edge="1" parent="1" source="s4sVvPbw_b3RqCzsC3ED-19" target="s4sVvPbw_b3RqCzsC3ED-18">
          <mxGeometry width="50" height="50" relative="1" as="geometry">
            <mxPoint x="320" y="790" as="sourcePoint" />
            <mxPoint x="370" y="740" as="targetPoint" />
          </mxGeometry>
        </mxCell>
        <mxCell id="s4sVvPbw_b3RqCzsC3ED-28" value="4 RSA public key" style="text;html=1;align=center;verticalAlign=middle;resizable=0;points=[];autosize=1;strokeColor=none;fillColor=none;" vertex="1" parent="1">
          <mxGeometry x="310" y="698" width="110" height="30" as="geometry" />
        </mxCell>
        <mxCell id="s4sVvPbw_b3RqCzsC3ED-29" value="Device / Mobile" style="text;html=1;strokeColor=none;fillColor=none;align=center;verticalAlign=middle;whiteSpace=wrap;rounded=0;" vertex="1" parent="1">
          <mxGeometry x="180" y="610" width="100" height="30" as="geometry" />
        </mxCell>
        <mxCell id="s4sVvPbw_b3RqCzsC3ED-30" value="Input PIN&lt;br&gt;Gen ISO PinBlock format 1&lt;br&gt;(not require PAN)&lt;br&gt;&lt;br&gt;Gen ZPK&lt;br&gt;Encrypt pin block with ZPK&lt;br&gt;&lt;br&gt;Encrypt ZPK with RSA public key" style="text;html=1;strokeColor=none;fillColor=none;align=center;verticalAlign=middle;whiteSpace=wrap;rounded=0;" vertex="1" parent="1">
          <mxGeometry x="130" y="728" width="160" height="30" as="geometry" />
        </mxCell>
        <mxCell id="s4sVvPbw_b3RqCzsC3ED-31" value="" style="endArrow=classic;html=1;rounded=0;entryX=0.008;entryY=0.654;entryDx=0;entryDy=0;entryPerimeter=0;" edge="1" parent="1" target="s4sVvPbw_b3RqCzsC3ED-19">
          <mxGeometry width="50" height="50" relative="1" as="geometry">
            <mxPoint x="290" y="870" as="sourcePoint" />
            <mxPoint x="340" y="820" as="targetPoint" />
          </mxGeometry>
        </mxCell>
        <mxCell id="s4sVvPbw_b3RqCzsC3ED-32" value="5 zpk(pinblock), pb(zpk)" style="text;html=1;align=center;verticalAlign=middle;resizable=0;points=[];autosize=1;strokeColor=none;fillColor=none;" vertex="1" parent="1">
          <mxGeometry x="280" y="838" width="150" height="30" as="geometry" />
        </mxCell>
        <mxCell id="s4sVvPbw_b3RqCzsC3ED-33" value="" style="endArrow=classic;html=1;rounded=0;entryX=0.008;entryY=0.654;entryDx=0;entryDy=0;entryPerimeter=0;" edge="1" parent="1">
          <mxGeometry width="50" height="50" relative="1" as="geometry">
            <mxPoint x="560" y="870" as="sourcePoint" />
            <mxPoint x="701" y="869" as="targetPoint" />
          </mxGeometry>
        </mxCell>
        <mxCell id="s4sVvPbw_b3RqCzsC3ED-34" value="6 zpk(pinblock), pb(zpk)" style="text;html=1;align=center;verticalAlign=middle;resizable=0;points=[];autosize=1;strokeColor=none;fillColor=none;" vertex="1" parent="1">
          <mxGeometry x="550" y="838" width="150" height="30" as="geometry" />
        </mxCell>
        <mxCell id="s4sVvPbw_b3RqCzsC3ED-35" value="decrypt PB(zpk) with PK and encrypt with LMK -&amp;gt; LMK(ZPK)" style="text;html=1;strokeColor=none;fillColor=none;align=center;verticalAlign=middle;whiteSpace=wrap;rounded=0;" vertex="1" parent="1">
          <mxGeometry x="720" y="868" width="190" height="30" as="geometry" />
        </mxCell>
        <mxCell id="s4sVvPbw_b3RqCzsC3ED-36" value="Translate pin from zpk(iso pinblock fm1) -&amp;gt; zpk(iso pinblock fm0)&amp;nbsp;" style="text;html=1;strokeColor=none;fillColor=none;align=center;verticalAlign=middle;whiteSpace=wrap;rounded=0;" vertex="1" parent="1">
          <mxGeometry x="720" y="920" width="250" height="30" as="geometry" />
        </mxCell>
        <mxCell id="s4sVvPbw_b3RqCzsC3ED-37" value="Gen Pin offset (update card holder)" style="text;html=1;strokeColor=none;fillColor=none;align=center;verticalAlign=middle;whiteSpace=wrap;rounded=0;" vertex="1" parent="1">
          <mxGeometry x="710" y="950" width="120" height="30" as="geometry" />
        </mxCell>
        <mxCell id="s4sVvPbw_b3RqCzsC3ED-38" value="" style="endArrow=classic;html=1;rounded=0;exitX=0;exitY=0.75;exitDx=0;exitDy=0;entryX=1;entryY=0.945;entryDx=0;entryDy=0;entryPerimeter=0;" edge="1" parent="1" source="s4sVvPbw_b3RqCzsC3ED-37" target="s4sVvPbw_b3RqCzsC3ED-19">
          <mxGeometry width="50" height="50" relative="1" as="geometry">
            <mxPoint x="550" y="1080" as="sourcePoint" />
            <mxPoint x="600" y="1030" as="targetPoint" />
          </mxGeometry>
        </mxCell>
        <mxCell id="s4sVvPbw_b3RqCzsC3ED-39" value="7 return complete" style="text;html=1;align=center;verticalAlign=middle;resizable=0;points=[];autosize=1;strokeColor=none;fillColor=none;" vertex="1" parent="1">
          <mxGeometry x="560" y="948" width="120" height="30" as="geometry" />
        </mxCell>
        <mxCell id="s4sVvPbw_b3RqCzsC3ED-40" value="8 return complete" style="text;html=1;align=center;verticalAlign=middle;resizable=0;points=[];autosize=1;strokeColor=none;fillColor=none;" vertex="1" parent="1">
          <mxGeometry x="300" y="940" width="120" height="30" as="geometry" />
        </mxCell>
        <mxCell id="s4sVvPbw_b3RqCzsC3ED-41" value="" style="endArrow=classic;html=1;rounded=0;exitX=-0.025;exitY=0.942;exitDx=0;exitDy=0;exitPerimeter=0;entryX=1.006;entryY=0.945;entryDx=0;entryDy=0;entryPerimeter=0;" edge="1" parent="1" source="s4sVvPbw_b3RqCzsC3ED-19" target="s4sVvPbw_b3RqCzsC3ED-18">
          <mxGeometry width="50" height="50" relative="1" as="geometry">
            <mxPoint x="280" y="990" as="sourcePoint" />
            <mxPoint x="330" y="940" as="targetPoint" />
          </mxGeometry>
        </mxCell>
        <mxCell id="s4sVvPbw_b3RqCzsC3ED-42" value="" style="rounded=0;whiteSpace=wrap;html=1;" vertex="1" parent="1">
          <mxGeometry x="130" y="1140" width="160" height="520" as="geometry" />
        </mxCell>
        <mxCell id="s4sVvPbw_b3RqCzsC3ED-43" value="Activate &amp;amp; Setup 1st pin via KPLuS" style="text;html=1;align=center;verticalAlign=middle;whiteSpace=wrap;rounded=0;" vertex="1" parent="1">
          <mxGeometry x="100" y="1080" width="210" height="30" as="geometry" />
        </mxCell>
        <mxCell id="s4sVvPbw_b3RqCzsC3ED-44" value="K+" style="rounded=0;whiteSpace=wrap;html=1;" vertex="1" parent="1">
          <mxGeometry x="430" y="1140" width="120" height="520" as="geometry" />
        </mxCell>
        <mxCell id="s4sVvPbw_b3RqCzsC3ED-45" value="IIP" style="rounded=0;whiteSpace=wrap;html=1;" vertex="1" parent="1">
          <mxGeometry x="690" y="1340" width="120" height="320" as="geometry" />
        </mxCell>
        <mxCell id="s4sVvPbw_b3RqCzsC3ED-47" value="Device / Mobile" style="text;html=1;strokeColor=none;fillColor=none;align=center;verticalAlign=middle;whiteSpace=wrap;rounded=0;" vertex="1" parent="1">
          <mxGeometry x="130" y="1110" width="100" height="30" as="geometry" />
        </mxCell>
        <mxCell id="s4sVvPbw_b3RqCzsC3ED-48" value="" style="endArrow=classic;html=1;rounded=0;" edge="1" parent="1">
          <mxGeometry width="50" height="50" relative="1" as="geometry">
            <mxPoint x="290" y="1200" as="sourcePoint" />
            <mxPoint x="427" y="1200" as="targetPoint" />
          </mxGeometry>
        </mxCell>
        <mxCell id="s4sVvPbw_b3RqCzsC3ED-49" value="1: request to activate card&amp;nbsp;" style="text;html=1;align=center;verticalAlign=middle;resizable=0;points=[];autosize=1;strokeColor=none;fillColor=none;" vertex="1" parent="1">
          <mxGeometry x="285" y="1160" width="160" height="30" as="geometry" />
        </mxCell>
        <mxCell id="s4sVvPbw_b3RqCzsC3ED-50" value="2: request to activate card&amp;nbsp;" style="text;html=1;align=center;verticalAlign=middle;resizable=0;points=[];autosize=1;strokeColor=none;fillColor=none;" vertex="1" parent="1">
          <mxGeometry x="545" y="1160" width="160" height="30" as="geometry" />
        </mxCell>
        <mxCell id="s4sVvPbw_b3RqCzsC3ED-51" value="" style="endArrow=classic;html=1;rounded=0;entryX=-0.028;entryY=0.147;entryDx=0;entryDy=0;entryPerimeter=0;" edge="1" parent="1">
          <mxGeometry width="50" height="50" relative="1" as="geometry">
            <mxPoint x="550" y="1199" as="sourcePoint" />
            <mxPoint x="687" y="1199" as="targetPoint" />
          </mxGeometry>
        </mxCell>
        <mxCell id="s4sVvPbw_b3RqCzsC3ED-53" value="" style="endArrow=classic;html=1;rounded=0;entryX=-0.028;entryY=0.147;entryDx=0;entryDy=0;entryPerimeter=0;" edge="1" parent="1">
          <mxGeometry width="50" height="50" relative="1" as="geometry">
            <mxPoint x="810" y="1199" as="sourcePoint" />
            <mxPoint x="947" y="1199" as="targetPoint" />
          </mxGeometry>
        </mxCell>
        <mxCell id="s4sVvPbw_b3RqCzsC3ED-54" value="3: request to activate card&amp;nbsp;" style="text;html=1;align=center;verticalAlign=middle;resizable=0;points=[];autosize=1;strokeColor=none;fillColor=none;" vertex="1" parent="1">
          <mxGeometry x="810" y="1160" width="160" height="30" as="geometry" />
        </mxCell>
        <mxCell id="s4sVvPbw_b3RqCzsC3ED-55" value="change status from inactive to npc" style="text;html=1;align=center;verticalAlign=middle;whiteSpace=wrap;rounded=0;" vertex="1" parent="1">
          <mxGeometry x="970" y="1170" width="80" height="30" as="geometry" />
        </mxCell>
        <mxCell id="s4sVvPbw_b3RqCzsC3ED-56" value="" style="endArrow=classic;html=1;rounded=0;exitX=0.898;exitY=0.987;exitDx=0;exitDy=0;exitPerimeter=0;" edge="1" parent="1" source="s4sVvPbw_b3RqCzsC3ED-57">
          <mxGeometry width="50" height="50" relative="1" as="geometry">
            <mxPoint x="830" y="1100" as="sourcePoint" />
            <mxPoint x="810" y="1230" as="targetPoint" />
          </mxGeometry>
        </mxCell>
        <mxCell id="s4sVvPbw_b3RqCzsC3ED-57" value="4: return activate complete" style="text;html=1;align=center;verticalAlign=middle;resizable=0;points=[];autosize=1;strokeColor=none;fillColor=none;" vertex="1" parent="1">
          <mxGeometry x="800" y="1200" width="160" height="30" as="geometry" />
        </mxCell>
        <mxCell id="s4sVvPbw_b3RqCzsC3ED-58" value="" style="endArrow=classic;html=1;rounded=0;exitX=0;exitY=0.22;exitDx=0;exitDy=0;exitPerimeter=0;" edge="1" parent="1">
          <mxGeometry width="50" height="50" relative="1" as="geometry">
            <mxPoint x="690" y="1230" as="sourcePoint" />
            <mxPoint x="547" y="1230" as="targetPoint" />
          </mxGeometry>
        </mxCell>
        <mxCell id="s4sVvPbw_b3RqCzsC3ED-59" value="5: return activate complete" style="text;html=1;align=center;verticalAlign=middle;resizable=0;points=[];autosize=1;strokeColor=none;fillColor=none;" vertex="1" parent="1">
          <mxGeometry x="545" y="1205" width="160" height="30" as="geometry" />
        </mxCell>
        <mxCell id="s4sVvPbw_b3RqCzsC3ED-60" value="Show change pin screen&lt;div&gt;1. Setup new pin (new card)&lt;/div&gt;&lt;div&gt;&lt;br&gt;&lt;/div&gt;&lt;div&gt;2. ChangePin (existing card)&lt;/div&gt;" style="text;html=1;align=center;verticalAlign=middle;whiteSpace=wrap;rounded=0;fontStyle=1" vertex="1" parent="1">
          <mxGeometry x="10" y="1260" width="110" height="30" as="geometry" />
        </mxCell>
        <mxCell id="s4sVvPbw_b3RqCzsC3ED-61" value="" style="endArrow=classic;html=1;rounded=0;entryX=-0.028;entryY=0.147;entryDx=0;entryDy=0;entryPerimeter=0;" edge="1" parent="1">
          <mxGeometry width="50" height="50" relative="1" as="geometry">
            <mxPoint x="550" y="1270" as="sourcePoint" />
            <mxPoint x="687" y="1270" as="targetPoint" />
          </mxGeometry>
        </mxCell>
        <mxCell id="s4sVvPbw_b3RqCzsC3ED-62" value="6: request get initial pin" style="text;html=1;align=center;verticalAlign=middle;resizable=0;points=[];autosize=1;strokeColor=none;fillColor=none;" vertex="1" parent="1">
          <mxGeometry x="540" y="1248" width="150" height="30" as="geometry" />
        </mxCell>
        <mxCell id="s4sVvPbw_b3RqCzsC3ED-63" value="" style="endArrow=classic;html=1;rounded=0;entryX=-0.028;entryY=0.147;entryDx=0;entryDy=0;entryPerimeter=0;" edge="1" parent="1">
          <mxGeometry width="50" height="50" relative="1" as="geometry">
            <mxPoint x="810" y="1269" as="sourcePoint" />
            <mxPoint x="947" y="1269" as="targetPoint" />
          </mxGeometry>
        </mxCell>
        <mxCell id="s4sVvPbw_b3RqCzsC3ED-64" value="7: request get initial pin" style="text;html=1;align=center;verticalAlign=middle;resizable=0;points=[];autosize=1;strokeColor=none;fillColor=none;" vertex="1" parent="1">
          <mxGeometry x="800" y="1248" width="150" height="30" as="geometry" />
        </mxCell>
        <mxCell id="s4sVvPbw_b3RqCzsC3ED-65" value="" style="endArrow=classic;html=1;rounded=0;exitX=0.861;exitY=0.786;exitDx=0;exitDy=0;exitPerimeter=0;entryX=1.013;entryY=0.882;entryDx=0;entryDy=0;entryPerimeter=0;" edge="1" parent="1" source="s4sVvPbw_b3RqCzsC3ED-66" target="s4sVvPbw_b3RqCzsC3ED-52">
          <mxGeometry width="50" height="50" relative="1" as="geometry">
            <mxPoint x="830" y="1340" as="sourcePoint" />
            <mxPoint x="880" y="1290" as="targetPoint" />
          </mxGeometry>
        </mxCell>
        <mxCell id="s4sVvPbw_b3RqCzsC3ED-66" value="8: return ccms_ppk(pinblock)" style="text;html=1;align=center;verticalAlign=middle;resizable=0;points=[];autosize=1;strokeColor=none;fillColor=none;" vertex="1" parent="1">
          <mxGeometry x="785" y="1274" width="180" height="30" as="geometry" />
        </mxCell>
        <mxCell id="s4sVvPbw_b3RqCzsC3ED-67" value="Asis: return kplus_key (clear pin)&lt;div&gt;Tobe: return ccms_ppk(pinblock)&lt;/div&gt;" style="text;html=1;align=center;verticalAlign=middle;whiteSpace=wrap;rounded=0;" vertex="1" parent="1">
          <mxGeometry x="970" y="1260" width="200" height="30" as="geometry" />
        </mxCell>
        <mxCell id="s4sVvPbw_b3RqCzsC3ED-68" value="" style="endArrow=classic;html=1;rounded=0;exitX=-0.037;exitY=0.384;exitDx=0;exitDy=0;exitPerimeter=0;entryX=1.013;entryY=0.882;entryDx=0;entryDy=0;entryPerimeter=0;" edge="1" parent="1">
          <mxGeometry width="50" height="50" relative="1" as="geometry">
            <mxPoint x="687" y="1301" as="sourcePoint" />
            <mxPoint x="553" y="1302" as="targetPoint" />
          </mxGeometry>
        </mxCell>
        <mxCell id="s4sVvPbw_b3RqCzsC3ED-69" value="9: return ccms_ppk(pinblock)" style="text;html=1;align=center;verticalAlign=middle;resizable=0;points=[];autosize=1;strokeColor=none;fillColor=none;" vertex="1" parent="1">
          <mxGeometry x="540" y="1278" width="180" height="30" as="geometry" />
        </mxCell>
        <mxCell id="s4sVvPbw_b3RqCzsC3ED-70" value="" style="endArrow=classic;html=1;rounded=0;exitX=-0.027;exitY=0.399;exitDx=0;exitDy=0;exitPerimeter=0;entryX=1.011;entryY=0.399;entryDx=0;entryDy=0;entryPerimeter=0;" edge="1" parent="1">
          <mxGeometry width="50" height="50" relative="1" as="geometry">
            <mxPoint x="426.7600000000002" y="1395.5900000000001" as="sourcePoint" />
            <mxPoint x="291.7600000000002" y="1395.5900000000001" as="targetPoint" />
          </mxGeometry>
        </mxCell>
        <mxCell id="s4sVvPbw_b3RqCzsC3ED-71" value="10: return activate complete&amp;nbsp;&lt;div&gt;+ ccms_ppk(pinblock)&amp;nbsp;&lt;/div&gt;&lt;div&gt;+ rsa pb key&amp;nbsp;&lt;/div&gt;" style="text;html=1;align=center;verticalAlign=middle;resizable=0;points=[];autosize=1;strokeColor=none;fillColor=none;" vertex="1" parent="1">
          <mxGeometry x="275" y="1340" width="170" height="60" as="geometry" />
        </mxCell>
        <mxCell id="s4sVvPbw_b3RqCzsC3ED-72" value="" style="endArrow=classic;html=1;rounded=0;entryX=0.933;entryY=0.8;entryDx=0;entryDy=0;entryPerimeter=0;" edge="1" parent="1" target="s4sVvPbw_b3RqCzsC3ED-73">
          <mxGeometry width="50" height="50" relative="1" as="geometry">
            <mxPoint x="560" y="1362" as="sourcePoint" />
            <mxPoint x="620" y="1330" as="targetPoint" />
          </mxGeometry>
        </mxCell>
        <mxCell id="s4sVvPbw_b3RqCzsC3ED-73" value="10: request RSA pb key" style="text;html=1;align=center;verticalAlign=middle;resizable=0;points=[];autosize=1;strokeColor=none;fillColor=none;" vertex="1" parent="1">
          <mxGeometry x="540" y="1338" width="150" height="30" as="geometry" />
        </mxCell>
        <mxCell id="s4sVvPbw_b3RqCzsC3ED-74" value="" style="endArrow=classic;html=1;rounded=0;entryX=0.933;entryY=0.767;entryDx=0;entryDy=0;entryPerimeter=0;" edge="1" parent="1" target="s4sVvPbw_b3RqCzsC3ED-75">
          <mxGeometry width="50" height="50" relative="1" as="geometry">
            <mxPoint x="810" y="1363" as="sourcePoint" />
            <mxPoint x="860" y="1310" as="targetPoint" />
          </mxGeometry>
        </mxCell>
        <mxCell id="s4sVvPbw_b3RqCzsC3ED-75" value="11: request RSA pb key" style="text;html=1;align=center;verticalAlign=middle;resizable=0;points=[];autosize=1;strokeColor=none;fillColor=none;" vertex="1" parent="1">
          <mxGeometry x="800" y="1340" width="150" height="30" as="geometry" />
        </mxCell>
        <mxCell id="s4sVvPbw_b3RqCzsC3ED-76" value="" style="endArrow=classic;html=1;rounded=0;" edge="1" parent="1">
          <mxGeometry width="50" height="50" relative="1" as="geometry">
            <mxPoint x="949" y="1390" as="sourcePoint" />
            <mxPoint x="810" y="1390" as="targetPoint" />
          </mxGeometry>
        </mxCell>
        <mxCell id="s4sVvPbw_b3RqCzsC3ED-77" value="12: return pb key" style="text;html=1;align=center;verticalAlign=middle;resizable=0;points=[];autosize=1;strokeColor=none;fillColor=none;" vertex="1" parent="1">
          <mxGeometry x="810" y="1368" width="110" height="30" as="geometry" />
        </mxCell>
        <mxCell id="s4sVvPbw_b3RqCzsC3ED-78" value="" style="endArrow=classic;html=1;rounded=0;entryX=-0.04;entryY=0.753;entryDx=0;entryDy=0;entryPerimeter=0;" edge="1" parent="1" target="s4sVvPbw_b3RqCzsC3ED-79">
          <mxGeometry width="50" height="50" relative="1" as="geometry">
            <mxPoint x="680" y="1393" as="sourcePoint" />
            <mxPoint x="600" y="1380" as="targetPoint" />
          </mxGeometry>
        </mxCell>
        <mxCell id="s4sVvPbw_b3RqCzsC3ED-79" value="13: return pb key" style="text;html=1;align=center;verticalAlign=middle;resizable=0;points=[];autosize=1;strokeColor=none;fillColor=none;" vertex="1" parent="1">
          <mxGeometry x="560" y="1370" width="110" height="30" as="geometry" />
        </mxCell>
        <mxCell id="s4sVvPbw_b3RqCzsC3ED-80" value="&lt;div&gt;&lt;font color=&quot;#ff9933&quot;&gt;&lt;font style=&quot;font-size: 10px;&quot;&gt;1.&amp;nbsp;&lt;/font&gt;&lt;span style=&quot;font-size: 10px; background-color: initial;&quot;&gt;Gen ZPK&lt;/span&gt;&lt;/font&gt;&lt;/div&gt;&lt;div&gt;&lt;span style=&quot;font-size: 10px; background-color: initial;&quot;&gt;&lt;font color=&quot;#ff9933&quot;&gt;&lt;br&gt;&lt;/font&gt;&lt;/span&gt;&lt;/div&gt;&lt;div&gt;&lt;span style=&quot;font-size: 10px; background-color: initial;&quot;&gt;&lt;font color=&quot;#ff9933&quot;&gt;2.&lt;/font&gt;&lt;/span&gt;&lt;/div&gt;&lt;div&gt;&lt;font color=&quot;#ff9933&quot; style=&quot;font-size: 10px;&quot;&gt;2.1: Case change pin:&lt;/font&gt;&lt;/div&gt;&lt;div&gt;&lt;font color=&quot;#ff9933&quot; style=&quot;font-size: 10px;&quot;&gt;Customer input current PIN&lt;/font&gt;&lt;/div&gt;&lt;div&gt;&lt;font color=&quot;#ff9933&quot; style=&quot;font-size: 10px;&quot;&gt;Gen ISO PinBlock format 1&lt;br&gt;(not require PAN)&lt;br&gt;&lt;/font&gt;&lt;/div&gt;&lt;div&gt;&lt;font color=&quot;#ff9933&quot; style=&quot;font-size: 10px;&quot;&gt;Encrypt current pin block with ZPK&lt;br&gt;&lt;/font&gt;&lt;/div&gt;&lt;div&gt;&lt;font color=&quot;#ff9933&quot; style=&quot;font-size: 10px;&quot;&gt;2.2: Case setup pin:&lt;/font&gt;&lt;/div&gt;&lt;div&gt;&lt;font color=&quot;#ff9933&quot; style=&quot;font-size: 10px;&quot;&gt;current pin = ccms_ppk(pinblock)&lt;/font&gt;&lt;/div&gt;&lt;div&gt;&lt;font color=&quot;#ff9933&quot;&gt;&lt;br&gt;&lt;/font&gt;&lt;/div&gt;&lt;div&gt;&lt;font color=&quot;#ff9933&quot; style=&quot;font-size: 10px;&quot;&gt;4.&lt;/font&gt;&lt;/div&gt;&lt;font color=&quot;#ff9933&quot; style=&quot;font-size: 10px;&quot;&gt;Customer Input new PIN&lt;br&gt;Gen ISO PinBlock format 1&lt;br&gt;(not require PAN)&lt;/font&gt;&lt;div&gt;&lt;font color=&quot;#ff9933&quot; style=&quot;font-size: 10px;&quot;&gt;&lt;br&gt;5.&lt;br&gt;&lt;/font&gt;&lt;/div&gt;&lt;div&gt;&lt;font color=&quot;#ff9933&quot; style=&quot;font-size: 10px;&quot;&gt;Encrypt new pin block with ZPK&lt;br&gt;6.&lt;br&gt;Encrypt ZPK with RSA public key&lt;/font&gt;&lt;/div&gt;&lt;div&gt;&lt;font color=&quot;#ff9933&quot; style=&quot;font-size: 10px;&quot;&gt;&lt;br&gt;&lt;/font&gt;&lt;/div&gt;&lt;div&gt;&lt;font color=&quot;#ff9933&quot; style=&quot;font-size: 10px;&quot;&gt;7.&lt;/font&gt;&lt;/div&gt;&lt;div&gt;&lt;font color=&quot;#ff9933&quot; style=&quot;font-size: 10px;&quot;&gt;ChangePinMode&lt;/font&gt;&lt;/div&gt;&lt;div&gt;&lt;font color=&quot;#ff9933&quot;&gt;&lt;font style=&quot;font-size: 10px;&quot;&gt;Case: SetupPin =&amp;gt;&amp;nbsp;&lt;/font&gt;&lt;span style=&quot;font-size: 10px; background-color: initial;&quot;&gt;ChangePinMode = 0&lt;/span&gt;&lt;/font&gt;&lt;/div&gt;&lt;div&gt;&lt;font color=&quot;#ff9933&quot;&gt;&lt;font style=&quot;font-size: 10px;&quot;&gt;Case: ChangePin =&amp;gt;&amp;nbsp;&lt;/font&gt;&lt;span style=&quot;background-color: initial; font-size: 10px;&quot;&gt;ChangePinMode = 1&lt;/span&gt;&lt;span style=&quot;font-size: 10px; background-color: initial;&quot;&gt;&lt;br&gt;&lt;/span&gt;&lt;/font&gt;&lt;/div&gt;&lt;div&gt;&lt;span style=&quot;font-size: 10px; background-color: initial;&quot;&gt;&lt;br&gt;&lt;/span&gt;&lt;/div&gt;" style="text;html=1;strokeColor=none;fillColor=none;align=center;verticalAlign=middle;whiteSpace=wrap;rounded=0;" vertex="1" parent="1">
          <mxGeometry x="130" y="1450" width="160" height="30" as="geometry" />
        </mxCell>
        <mxCell id="s4sVvPbw_b3RqCzsC3ED-81" value="" style="endArrow=classic;html=1;rounded=0;" edge="1" parent="1">
          <mxGeometry width="50" height="50" relative="1" as="geometry">
            <mxPoint x="295" y="1600" as="sourcePoint" />
            <mxPoint x="425" y="1600" as="targetPoint" />
          </mxGeometry>
        </mxCell>
        <mxCell id="s4sVvPbw_b3RqCzsC3ED-82" value="11:&lt;div&gt;pb(zpk)&lt;/div&gt;&lt;div&gt;ChangePinMode&lt;/div&gt;&lt;div&gt;currentPin&lt;/div&gt;&lt;div&gt;newPin&lt;/div&gt;" style="text;html=1;align=center;verticalAlign=middle;resizable=0;points=[];autosize=1;strokeColor=none;fillColor=none;" vertex="1" parent="1">
          <mxGeometry x="295" y="1520" width="110" height="90" as="geometry" />
        </mxCell>
        <mxCell id="s4sVvPbw_b3RqCzsC3ED-83" value="" style="endArrow=classic;html=1;rounded=0;" edge="1" parent="1">
          <mxGeometry width="50" height="50" relative="1" as="geometry">
            <mxPoint x="555" y="1600" as="sourcePoint" />
            <mxPoint x="685" y="1600" as="targetPoint" />
          </mxGeometry>
        </mxCell>
        <mxCell id="s4sVvPbw_b3RqCzsC3ED-84" value="12:&lt;div&gt;pb(zpk)&lt;/div&gt;&lt;div&gt;ChangePinMode&lt;/div&gt;&lt;div&gt;currentPin&lt;/div&gt;&lt;div&gt;newPin&lt;/div&gt;&lt;div&gt;CardNo&lt;/div&gt;" style="text;html=1;align=center;verticalAlign=middle;resizable=0;points=[];autosize=1;strokeColor=none;fillColor=none;" vertex="1" parent="1">
          <mxGeometry x="560" y="1500" width="110" height="100" as="geometry" />
        </mxCell>
        <mxCell id="s4sVvPbw_b3RqCzsC3ED-85" value="" style="endArrow=classic;html=1;rounded=0;" edge="1" parent="1">
          <mxGeometry width="50" height="50" relative="1" as="geometry">
            <mxPoint x="815" y="1600" as="sourcePoint" />
            <mxPoint x="945" y="1600" as="targetPoint" />
          </mxGeometry>
        </mxCell>
        <mxCell id="s4sVvPbw_b3RqCzsC3ED-86" value="13:&lt;div&gt;pb(zpk)&lt;/div&gt;&lt;div&gt;ChangePinMode&lt;/div&gt;&lt;div&gt;currentPin&lt;/div&gt;&lt;div&gt;newPin&lt;/div&gt;&lt;div&gt;CardNo&lt;/div&gt;" style="text;html=1;align=center;verticalAlign=middle;resizable=0;points=[];autosize=1;strokeColor=none;fillColor=none;" vertex="1" parent="1">
          <mxGeometry x="820" y="1500" width="110" height="100" as="geometry" />
        </mxCell>
        <mxCell id="s4sVvPbw_b3RqCzsC3ED-87" value="decrypt PB(zpk) with PK and encrypt with LMK -&amp;gt; LMK(ZPK)" style="text;html=1;strokeColor=none;fillColor=none;align=center;verticalAlign=middle;whiteSpace=wrap;rounded=0;" vertex="1" parent="1">
          <mxGeometry x="960" y="1548" width="190" height="30" as="geometry" />
        </mxCell>
        <mxCell id="s4sVvPbw_b3RqCzsC3ED-88" value="Gen new Pin offset (update card holder)" style="text;html=1;strokeColor=none;fillColor=none;align=center;verticalAlign=middle;whiteSpace=wrap;rounded=0;" vertex="1" parent="1">
          <mxGeometry x="950" y="1590" width="120" height="30" as="geometry" />
        </mxCell>
        <mxCell id="s4sVvPbw_b3RqCzsC3ED-89" value="Verify current pin" style="text;html=1;align=center;verticalAlign=middle;whiteSpace=wrap;rounded=0;" vertex="1" parent="1">
          <mxGeometry x="940" y="1518" width="160" height="30" as="geometry" />
        </mxCell>
        <mxCell id="s4sVvPbw_b3RqCzsC3ED-90" value="Tandem" style="rounded=0;whiteSpace=wrap;html=1;" vertex="1" parent="1">
          <mxGeometry x="1190" y="1560" width="120" height="100" as="geometry" />
        </mxCell>
        <mxCell id="s4sVvPbw_b3RqCzsC3ED-91" value="" style="endArrow=classic;html=1;rounded=0;exitX=1;exitY=0.5;exitDx=0;exitDy=0;entryX=0.923;entryY=0.833;entryDx=0;entryDy=0;entryPerimeter=0;" edge="1" parent="1" source="s4sVvPbw_b3RqCzsC3ED-88" target="s4sVvPbw_b3RqCzsC3ED-92">
          <mxGeometry width="50" height="50" relative="1" as="geometry">
            <mxPoint x="1090" y="1630" as="sourcePoint" />
            <mxPoint x="1140" y="1580" as="targetPoint" />
          </mxGeometry>
        </mxCell>
        <mxCell id="s4sVvPbw_b3RqCzsC3ED-92" value="14: update pin offset" style="text;html=1;align=center;verticalAlign=middle;resizable=0;points=[];autosize=1;strokeColor=none;fillColor=none;" vertex="1" parent="1">
          <mxGeometry x="1060" y="1580" width="130" height="30" as="geometry" />
        </mxCell>
        <mxCell id="s4sVvPbw_b3RqCzsC3ED-93" value="" style="endArrow=classic;html=1;rounded=0;entryX=1.03;entryY=0.963;entryDx=0;entryDy=0;entryPerimeter=0;" edge="1" parent="1" target="s4sVvPbw_b3RqCzsC3ED-46">
          <mxGeometry width="50" height="50" relative="1" as="geometry">
            <mxPoint x="1180" y="1640" as="sourcePoint" />
            <mxPoint x="1040" y="1710" as="targetPoint" />
          </mxGeometry>
        </mxCell>
        <mxCell id="s4sVvPbw_b3RqCzsC3ED-94" value="15: return complete" style="text;html=1;align=center;verticalAlign=middle;resizable=0;points=[];autosize=1;strokeColor=none;fillColor=none;" vertex="1" parent="1">
          <mxGeometry x="1060" y="1618" width="130" height="30" as="geometry" />
        </mxCell>
        <mxCell id="s4sVvPbw_b3RqCzsC3ED-95" value="" style="endArrow=classic;html=1;rounded=0;" edge="1" parent="1">
          <mxGeometry width="50" height="50" relative="1" as="geometry">
            <mxPoint x="940" y="1640" as="sourcePoint" />
            <mxPoint x="820" y="1640" as="targetPoint" />
          </mxGeometry>
        </mxCell>
        <mxCell id="s4sVvPbw_b3RqCzsC3ED-96" value="16: return change pin complete" style="text;html=1;align=center;verticalAlign=middle;resizable=0;points=[];autosize=1;strokeColor=none;fillColor=none;" vertex="1" parent="1">
          <mxGeometry x="800" y="1618" width="190" height="30" as="geometry" />
        </mxCell>
        <mxCell id="s4sVvPbw_b3RqCzsC3ED-97" value="" style="endArrow=classic;html=1;rounded=0;" edge="1" parent="1">
          <mxGeometry width="50" height="50" relative="1" as="geometry">
            <mxPoint x="680" y="1642" as="sourcePoint" />
            <mxPoint x="560" y="1642" as="targetPoint" />
          </mxGeometry>
        </mxCell>
        <mxCell id="s4sVvPbw_b3RqCzsC3ED-98" value="17: return change pin complete" style="text;html=1;align=center;verticalAlign=middle;resizable=0;points=[];autosize=1;strokeColor=none;fillColor=none;" vertex="1" parent="1">
          <mxGeometry x="540" y="1620" width="190" height="30" as="geometry" />
        </mxCell>
        <mxCell id="s4sVvPbw_b3RqCzsC3ED-99" value="" style="endArrow=classic;html=1;rounded=0;" edge="1" parent="1">
          <mxGeometry width="50" height="50" relative="1" as="geometry">
            <mxPoint x="420" y="1642" as="sourcePoint" />
            <mxPoint x="300" y="1642" as="targetPoint" />
          </mxGeometry>
        </mxCell>
        <mxCell id="s4sVvPbw_b3RqCzsC3ED-100" value="18: return change pin complete" style="text;html=1;align=center;verticalAlign=middle;resizable=0;points=[];autosize=1;strokeColor=none;fillColor=none;" vertex="1" parent="1">
          <mxGeometry x="280" y="1620" width="190" height="30" as="geometry" />
        </mxCell>
        <mxCell id="s4sVvPbw_b3RqCzsC3ED-101" value="" style="rounded=0;whiteSpace=wrap;html=1;fillColor=#E6FFCC;opacity=30;" vertex="1" parent="1">
          <mxGeometry x="550" y="1155" width="650" height="95" as="geometry" />
        </mxCell>
        <mxCell id="s4sVvPbw_b3RqCzsC3ED-103" value="" style="rounded=0;whiteSpace=wrap;html=1;fillColor=#ffe6cc;strokeColor=#d79b00;opacity=30;" vertex="1" parent="1">
          <mxGeometry x="290" y="1340" width="910" height="80" as="geometry" />
        </mxCell>
        <mxCell id="s4sVvPbw_b3RqCzsC3ED-104" value="" style="rounded=0;whiteSpace=wrap;html=1;fillColor=#ffe6cc;strokeColor=#d79b00;opacity=30;" vertex="1" parent="1">
          <mxGeometry x="290" y="1493" width="1050" height="167" as="geometry" />
        </mxCell>
      </root>
    </mxGraphModel>
  </diagram>
</mxfile>
